<?xml version="1.0" encoding="UTF-8" standalone="no"?>
<!DOCTYPE svg PUBLIC "-//W3C//DTD SVG 1.1//EN"
 "http://www.w3.org/Graphics/SVG/1.1/DTD/svg11.dtd">
<!-- Generated by graphviz version 2.40.1 (20161225.0304)
 -->
<!-- Title: oneDegreeRelationshipsDiagramImplied Pages: 1 -->
<svg width="427pt" height="853pt"
 viewBox="0.00 0.00 427.00 853.20" xmlns="http://www.w3.org/2000/svg" xmlns:xlink="http://www.w3.org/1999/xlink">
<g id="graph0" class="graph" transform="scale(1 1) rotate(0) translate(4 849.2)">
<title>oneDegreeRelationshipsDiagramImplied</title>
<polygon fill="#ffffff" stroke="transparent" points="-4,4 -4,-849.2 423,-849.2 423,4 -4,4"/>
<text text-anchor="middle" x="72.4936" y="-7.3" font-family="Helvetica,sans-Serif" font-size="11.00" fill="#000000">Generated by SchemaSpy</text>
<!-- arch_c14_DataCore -->
<g id="node1" class="node">
<title>arch_c14_DataCore</title>
<g id="a_node1"><a xlink:href="../../tables/arch_c14_DataCore.html" xlink:title="arch_c14_DataCore" target="_top">
<polygon fill="#ffffff" stroke="transparent" points="270,-230.2 270,-841.2 411,-841.2 411,-230.2 270,-230.2"/>
<polygon fill="#f5f5f5" stroke="transparent" points="270.5,-817.7 270.5,-840.7 411.5,-840.7 411.5,-817.7 270.5,-817.7"/>
<polygon fill="none" stroke="#000000" points="270.5,-817.7 270.5,-840.7 411.5,-840.7 411.5,-817.7 270.5,-817.7"/>
<text text-anchor="start" x="275.2943" y="-826.8" font-family="Helvetica,sans-Serif" font-weight="bold" font-size="11.00" fill="#000000">arch_c14_DataCore</text>
<text text-anchor="start" x="377.0219" y="-825.8" font-family="Helvetica,sans-Serif" font-size="11.00" fill="#000000">[table]</text>
<polygon fill="none" stroke="#000000" points="270.5,-795.7 270.5,-817.7 411.5,-817.7 411.5,-795.7 270.5,-795.7"/>
<image xlink:href="../../images/primaryKeys.png" width="11px" height="12px" preserveAspectRatio="xMinYMin meet" x="275.5" y="-812.7"/>
<text text-anchor="start" x="294.5" y="-802.8" font-family="Helvetica,sans-Serif" font-size="11.00" fill="#000000">OBSID1</text>
<polygon fill="none" stroke="#000000" points="270.5,-773.7 270.5,-795.7 411.5,-795.7 411.5,-773.7 270.5,-773.7"/>
<image xlink:href="../../images/foreignKeys.png" width="11px" height="12px" preserveAspectRatio="xMinYMin meet" x="275.5" y="-790.7"/>
<text text-anchor="start" x="294.5" y="-780.8" font-family="Helvetica,sans-Serif" font-size="11.00" fill="#000000">SMPID</text>
<polygon fill="none" stroke="#000000" points="270.5,-751.7 270.5,-773.7 411.5,-773.7 411.5,-751.7 270.5,-751.7"/>
<image xlink:href="../../images/foreignKeys.png" width="11px" height="12px" preserveAspectRatio="xMinYMin meet" x="275.5" y="-768.7"/>
<text text-anchor="start" x="294.5" y="-758.8" font-family="Helvetica,sans-Serif" font-size="11.00" fill="#000000">LAB_ORIGID</text>
<polygon fill="none" stroke="#000000" points="270.5,-729.7 270.5,-751.7 411.5,-751.7 411.5,-729.7 270.5,-729.7"/>
<image xlink:href="../../images/foreignKeys.png" width="11px" height="12px" preserveAspectRatio="xMinYMin meet" x="275.5" y="-746.7"/>
<text text-anchor="start" x="294.5" y="-736.8" font-family="Helvetica,sans-Serif" font-size="11.00" fill="#000000">METHODID</text>
<polygon fill="none" stroke="#000000" points="270.5,-707.7 270.5,-729.7 411.5,-729.7 411.5,-707.7 270.5,-707.7"/>
<image xlink:href="../../images/foreignKeys.png" width="11px" height="12px" preserveAspectRatio="xMinYMin meet" x="275.5" y="-724.7"/>
<text text-anchor="start" x="294.5" y="-714.8" font-family="Helvetica,sans-Serif" font-size="11.00" fill="#000000">DBDOI</text>
<polygon fill="none" stroke="#000000" points="270.5,-685.7 270.5,-707.7 411.5,-707.7 411.5,-685.7 270.5,-685.7"/>
<image xlink:href="../../images/foreignKeys.png" width="11px" height="12px" preserveAspectRatio="xMinYMin meet" x="275.5" y="-702.7"/>
<text text-anchor="start" x="294.5" y="-692.8" font-family="Helvetica,sans-Serif" font-size="11.00" fill="#000000">REFDBID1</text>
<polygon fill="none" stroke="#000000" points="270.5,-663.7 270.5,-685.7 411.5,-685.7 411.5,-663.7 270.5,-663.7"/>
<image xlink:href="../../images/foreignKeys.png" width="11px" height="12px" preserveAspectRatio="xMinYMin meet" x="275.5" y="-680.7"/>
<text text-anchor="start" x="294.5" y="-670.8" font-family="Helvetica,sans-Serif" font-size="11.00" fill="#000000">REFDBID2</text>
<polygon fill="none" stroke="#000000" points="270.5,-641.7 270.5,-663.7 411.5,-663.7 411.5,-641.7 270.5,-641.7"/>
<image xlink:href="../../images/foreignKeys.png" width="11px" height="12px" preserveAspectRatio="xMinYMin meet" x="275.5" y="-658.7"/>
<text text-anchor="start" x="294.5" y="-648.8" font-family="Helvetica,sans-Serif" font-size="11.00" fill="#000000">REFDBID3</text>
<polygon fill="none" stroke="#000000" points="270.5,-619.7 270.5,-641.7 411.5,-641.7 411.5,-619.7 270.5,-619.7"/>
<image xlink:href="../../images/foreignKeys.png" width="11px" height="12px" preserveAspectRatio="xMinYMin meet" x="275.5" y="-636.7"/>
<text text-anchor="start" x="294.5" y="-626.8" font-family="Helvetica,sans-Serif" font-size="11.00" fill="#000000">REFDBID4</text>
<polygon fill="none" stroke="#000000" points="270.5,-597.7 270.5,-619.7 411.5,-619.7 411.5,-597.7 270.5,-597.7"/>
<image xlink:href="../../images/foreignKeys.png" width="11px" height="12px" preserveAspectRatio="xMinYMin meet" x="275.5" y="-614.7"/>
<text text-anchor="start" x="294.5" y="-604.8" font-family="Helvetica,sans-Serif" font-size="11.00" fill="#000000">COL_MTDID</text>
<polygon fill="none" stroke="#000000" points="270.5,-575.7 270.5,-597.7 411.5,-597.7 411.5,-575.7 270.5,-575.7"/>
<image xlink:href="../../images/foreignKeys.png" width="11px" height="12px" preserveAspectRatio="xMinYMin meet" x="275.5" y="-592.7"/>
<text text-anchor="start" x="294.5" y="-582.8" font-family="Helvetica,sans-Serif" font-size="11.00" fill="#000000">MATERIA1ID</text>
<polygon fill="none" stroke="#000000" points="270.5,-553.7 270.5,-575.7 411.5,-575.7 411.5,-553.7 270.5,-553.7"/>
<image xlink:href="../../images/foreignKeys.png" width="11px" height="12px" preserveAspectRatio="xMinYMin meet" x="275.5" y="-570.7"/>
<text text-anchor="start" x="294.5" y="-560.8" font-family="Helvetica,sans-Serif" font-size="11.00" fill="#000000">MATERIA2ID</text>
<polygon fill="none" stroke="#000000" points="270.5,-531.7 270.5,-553.7 411.5,-553.7 411.5,-531.7 270.5,-531.7"/>
<image xlink:href="../../images/foreignKeys.png" width="11px" height="12px" preserveAspectRatio="xMinYMin meet" x="275.5" y="-548.7"/>
<text text-anchor="start" x="294.5" y="-538.8" font-family="Helvetica,sans-Serif" font-size="11.00" fill="#000000">HUM_MODID</text>
<polygon fill="none" stroke="#000000" points="270.5,-509.7 270.5,-531.7 411.5,-531.7 411.5,-509.7 270.5,-509.7"/>
<image xlink:href="../../images/foreignKeys.png" width="11px" height="12px" preserveAspectRatio="xMinYMin meet" x="275.5" y="-526.7"/>
<text text-anchor="start" x="294.5" y="-516.8" font-family="Helvetica,sans-Serif" font-size="11.00" fill="#000000">CONTAMID</text>
<polygon fill="none" stroke="#000000" points="270.5,-487.7 270.5,-509.7 411.5,-509.7 411.5,-487.7 270.5,-487.7"/>
<image xlink:href="../../images/foreignKeys.png" width="11px" height="12px" preserveAspectRatio="xMinYMin meet" x="275.5" y="-504.7"/>
<text text-anchor="start" x="294.5" y="-494.8" font-family="Helvetica,sans-Serif" font-size="11.00" fill="#000000">CHEMPREPID</text>
<polygon fill="none" stroke="#000000" points="270.5,-465.7 270.5,-487.7 411.5,-487.7 411.5,-465.7 270.5,-465.7"/>
<image xlink:href="../../images/foreignKeys.png" width="11px" height="12px" preserveAspectRatio="xMinYMin meet" x="275.5" y="-482.7"/>
<text text-anchor="start" x="294.5" y="-472.8" font-family="Helvetica,sans-Serif" font-size="11.00" fill="#000000">SOLVENT2ID</text>
<polygon fill="none" stroke="#000000" points="270.5,-443.7 270.5,-465.7 411.5,-465.7 411.5,-443.7 270.5,-443.7"/>
<image xlink:href="../../images/foreignKeys.png" width="11px" height="12px" preserveAspectRatio="xMinYMin meet" x="275.5" y="-460.7"/>
<text text-anchor="start" x="294.5" y="-450.8" font-family="Helvetica,sans-Serif" font-size="11.00" fill="#000000">C_MTDID</text>
<polygon fill="none" stroke="#000000" points="270.5,-421.7 270.5,-443.7 411.5,-443.7 411.5,-421.7 270.5,-421.7"/>
<image xlink:href="../../images/foreignKeys.png" width="11px" height="12px" preserveAspectRatio="xMinYMin meet" x="275.5" y="-438.7"/>
<text text-anchor="start" x="294.5" y="-428.8" font-family="Helvetica,sans-Serif" font-size="11.00" fill="#000000">PCT_C_MTID</text>
<polygon fill="none" stroke="#000000" points="270.5,-399.7 270.5,-421.7 411.5,-421.7 411.5,-399.7 270.5,-399.7"/>
<image xlink:href="../../images/foreignKeys.png" width="11px" height="12px" preserveAspectRatio="xMinYMin meet" x="275.5" y="-416.7"/>
<text text-anchor="start" x="294.5" y="-406.8" font-family="Helvetica,sans-Serif" font-size="11.00" fill="#000000">PCT_N_MTID</text>
<polygon fill="none" stroke="#000000" points="270.5,-377.7 270.5,-399.7 411.5,-399.7 411.5,-377.7 270.5,-377.7"/>
<image xlink:href="../../images/foreignKeys.png" width="11px" height="12px" preserveAspectRatio="xMinYMin meet" x="275.5" y="-394.7"/>
<text text-anchor="start" x="294.5" y="-384.8" font-family="Helvetica,sans-Serif" font-size="11.00" fill="#000000">CN_MTDID</text>
<polygon fill="none" stroke="#000000" points="270.5,-355.7 270.5,-377.7 411.5,-377.7 411.5,-355.7 270.5,-355.7"/>
<image xlink:href="../../images/foreignKeys.png" width="11px" height="12px" preserveAspectRatio="xMinYMin meet" x="275.5" y="-372.7"/>
<text text-anchor="start" x="294.5" y="-362.8" font-family="Helvetica,sans-Serif" font-size="11.00" fill="#000000">C13_MTDID</text>
<polygon fill="none" stroke="#000000" points="270.5,-333.7 270.5,-355.7 411.5,-355.7 411.5,-333.7 270.5,-333.7"/>
<image xlink:href="../../images/foreignKeys.png" width="11px" height="12px" preserveAspectRatio="xMinYMin meet" x="275.5" y="-350.7"/>
<text text-anchor="start" x="294.5" y="-340.8" font-family="Helvetica,sans-Serif" font-size="11.00" fill="#000000">O18_MTDID</text>
<polygon fill="none" stroke="#000000" points="270.5,-311.7 270.5,-333.7 411.5,-333.7 411.5,-311.7 270.5,-311.7"/>
<image xlink:href="../../images/foreignKeys.png" width="11px" height="12px" preserveAspectRatio="xMinYMin meet" x="275.5" y="-328.7"/>
<text text-anchor="start" x="294.5" y="-318.8" font-family="Helvetica,sans-Serif" font-size="11.00" fill="#000000">N15_MTDID</text>
<polygon fill="none" stroke="#000000" points="270.5,-289.7 270.5,-311.7 411.5,-311.7 411.5,-289.7 270.5,-289.7"/>
<image xlink:href="../../images/foreignKeys.png" width="11px" height="12px" preserveAspectRatio="xMinYMin meet" x="275.5" y="-306.7"/>
<text text-anchor="start" x="294.5" y="-296.8" font-family="Helvetica,sans-Serif" font-size="11.00" fill="#000000">S34_MTDID</text>
<polygon fill="none" stroke="#000000" points="270.5,-267.7 270.5,-289.7 411.5,-289.7 411.5,-267.7 270.5,-267.7"/>
<image xlink:href="../../images/foreignKeys.png" width="11px" height="12px" preserveAspectRatio="xMinYMin meet" x="275.5" y="-284.7"/>
<text text-anchor="start" x="294.5" y="-274.8" font-family="Helvetica,sans-Serif" font-size="11.00" fill="#000000">C13_VALID</text>
<polygon fill="none" stroke="#000000" points="270.5,-248.7 270.5,-267.7 411.5,-267.7 411.5,-248.7 270.5,-248.7"/>
<text text-anchor="start" x="273.5" y="-254.8" font-family="Helvetica,sans-Serif" font-size="11.00" fill="#000000">...</text>
<polygon fill="#ffffff" stroke="transparent" points="270.5,-229.7 270.5,-248.7 314.5,-248.7 314.5,-229.7 270.5,-229.7"/>
<polygon fill="none" stroke="#000000" points="270.5,-229.7 270.5,-248.7 314.5,-248.7 314.5,-229.7 270.5,-229.7"/>
<text text-anchor="start" x="273.5" y="-235.8" font-family="Helvetica,sans-Serif" font-size="11.00" fill="#000000">&lt; 24</text>
<polygon fill="#ffffff" stroke="transparent" points="314.5,-229.7 314.5,-248.7 381.5,-248.7 381.5,-229.7 314.5,-229.7"/>
<polygon fill="none" stroke="#000000" points="314.5,-229.7 314.5,-248.7 381.5,-248.7 381.5,-229.7 314.5,-229.7"/>
<text text-anchor="start" x="324.7089" y="-235.8" font-family="Helvetica,sans-Serif" font-size="11.00" fill="#000000">9,504 rows</text>
<polygon fill="#ffffff" stroke="transparent" points="381.5,-229.7 381.5,-248.7 411.5,-248.7 411.5,-229.7 381.5,-229.7"/>
<polygon fill="none" stroke="#000000" points="381.5,-229.7 381.5,-248.7 411.5,-248.7 411.5,-229.7 381.5,-229.7"/>
<text text-anchor="start" x="392.9053" y="-235.8" font-family="Helvetica,sans-Serif" font-size="11.00" fill="#000000">1 &gt;</text>
</a>
</g>
</g>
<!-- c14_hum_modID -->
<g id="node2" class="node">
<title>c14_hum_modID</title>
<g id="a_node2"><a xlink:href="../../tables/c14_hum_modID.html" xlink:title="c14_hum_modID" target="_top">
<polygon fill="#ffffff" stroke="transparent" points="8,-227.7 8,-361.7 221,-361.7 221,-227.7 8,-227.7"/>
<polygon fill="#f5f5f5" stroke="transparent" points="10.5,-336.7 10.5,-359.7 219.5,-359.7 219.5,-336.7 10.5,-336.7"/>
<polygon fill="none" stroke="#000000" points="10.5,-336.7 10.5,-359.7 219.5,-359.7 219.5,-336.7 10.5,-336.7"/>
<text text-anchor="start" x="15.5" y="-345.8" font-family="Helvetica,sans-Serif" font-weight="bold" font-size="11.00" fill="#000000">c14_hum_modID</text>
<text text-anchor="start" x="184.5437" y="-344.8" font-family="Helvetica,sans-Serif" font-size="11.00" fill="#000000">[table]</text>
<polygon fill="none" stroke="#000000" points="10.5,-314.7 10.5,-336.7 127.5,-336.7 127.5,-314.7 10.5,-314.7"/>
<image xlink:href="../../images/primaryKeys.png" width="11px" height="12px" preserveAspectRatio="xMinYMin meet" x="15.5" y="-331.7"/>
<text text-anchor="start" x="30.5" y="-321.8" font-family="Helvetica,sans-Serif" font-size="11.00" fill="#000000">HUM_MODID</text>
<polygon fill="none" stroke="#000000" points="127.5,-314.7 127.5,-336.7 219.5,-336.7 219.5,-314.7 127.5,-314.7"/>
<text text-anchor="start" x="130.5" y="-322.4" font-family="Helvetica,sans-Serif" font-size="11.00" fill="#000000">int2[5]</text>
<polygon fill="none" stroke="#000000" points="10.5,-292.7 10.5,-314.7 127.5,-314.7 127.5,-292.7 10.5,-292.7"/>
<text text-anchor="start" x="30.5" y="-299.8" font-family="Helvetica,sans-Serif" font-size="11.00" fill="#000000">HUM_MOD</text>
<polygon fill="none" stroke="#000000" points="127.5,-292.7 127.5,-314.7 219.5,-314.7 219.5,-292.7 127.5,-292.7"/>
<text text-anchor="start" x="130.5" y="-300.4" font-family="Helvetica,sans-Serif" font-size="11.00" fill="#000000">text[2147483647]</text>
<polygon fill="none" stroke="#000000" points="10.5,-270.7 10.5,-292.7 127.5,-292.7 127.5,-270.7 10.5,-270.7"/>
<text text-anchor="start" x="30.5" y="-277.8" font-family="Helvetica,sans-Serif" font-size="11.00" fill="#000000">CREATED_AT</text>
<polygon fill="none" stroke="#000000" points="127.5,-270.7 127.5,-292.7 219.5,-292.7 219.5,-270.7 127.5,-270.7"/>
<text text-anchor="start" x="130.1023" y="-278.4" font-family="Helvetica,sans-Serif" font-size="11.00" fill="#000000">timestamptz[35,6]</text>
<polygon fill="none" stroke="#000000" points="10.5,-248.7 10.5,-270.7 127.5,-270.7 127.5,-248.7 10.5,-248.7"/>
<text text-anchor="start" x="30.5" y="-255.8" font-family="Helvetica,sans-Serif" font-size="11.00" fill="#000000">UPDATED_AT</text>
<polygon fill="none" stroke="#000000" points="127.5,-248.7 127.5,-270.7 219.5,-270.7 219.5,-248.7 127.5,-248.7"/>
<text text-anchor="start" x="130.1023" y="-256.4" font-family="Helvetica,sans-Serif" font-size="11.00" fill="#000000">timestamptz[35,6]</text>
<polygon fill="#ffffff" stroke="transparent" points="10.5,-229.7 10.5,-248.7 57.5,-248.7 57.5,-229.7 10.5,-229.7"/>
<polygon fill="none" stroke="#000000" points="10.5,-229.7 10.5,-248.7 57.5,-248.7 57.5,-229.7 10.5,-229.7"/>
<text text-anchor="start" x="13.5" y="-235.8" font-family="Helvetica,sans-Serif" font-size="11.00" fill="#000000">&lt; 0</text>
<polygon fill="#ffffff" stroke="transparent" points="57.5,-229.7 57.5,-248.7 127.5,-248.7 127.5,-229.7 57.5,-229.7"/>
<polygon fill="none" stroke="#000000" points="57.5,-229.7 57.5,-248.7 127.5,-248.7 127.5,-229.7 57.5,-229.7"/>
<text text-anchor="start" x="85.9956" y="-235.8" font-family="Helvetica,sans-Serif" font-size="11.00" fill="#000000">12 rows</text>
<polygon fill="#ffffff" stroke="transparent" points="127.5,-229.7 127.5,-248.7 219.5,-248.7 219.5,-229.7 127.5,-229.7"/>
<polygon fill="none" stroke="#000000" points="127.5,-229.7 127.5,-248.7 219.5,-248.7 219.5,-229.7 127.5,-229.7"/>
<text text-anchor="start" x="200.9053" y="-235.8" font-family="Helvetica,sans-Serif" font-size="11.00" fill="#000000">2 &gt;</text>
<polygon fill="none" stroke="#000000" stroke-width="2" points="9,-228.7 9,-360.7 220,-360.7 220,-228.7 9,-228.7"/>
</a>
</g>
</g>
<!-- arch_c14_DataCore&#45;&gt;c14_hum_modID -->
<g id="edge1" class="edge">
<title>arch_c14_DataCore:w&#45;&gt;c14_hum_modID:e</title>
<path fill="none" stroke="#000000" d="M255.9457,-540.6904C187.3066,-518.8141 312.9607,-325.7 219.5,-325.7"/>
<polygon fill="#000000" stroke="#000000" points="262.5752,-541.6057 270.0076,-546.2662 266.5376,-542.1529 270.5,-542.7 270.5,-542.7 270.5,-542.7 266.5376,-542.1529 270.9924,-539.1338 262.5752,-541.6057 262.5752,-541.6057"/>
<ellipse fill="none" stroke="#000000" cx="259.4053" cy="-541.168" rx="3.2" ry="3.2"/>
</g>
<!-- sahularch_c14 -->
<g id="node3" class="node">
<title>sahularch_c14</title>
<g id="a_node3"><a xlink:href="../../tables/sahularch_c14.html" xlink:title="sahularch_c14" target="_top">
<polygon fill="#ffffff" stroke="transparent" points="283.5,-38.2 283.5,-209.2 397.5,-209.2 397.5,-38.2 283.5,-38.2"/>
<polygon fill="#f5f5f5" stroke="transparent" points="283.5,-185.7 283.5,-208.7 397.5,-208.7 397.5,-185.7 283.5,-185.7"/>
<polygon fill="none" stroke="#000000" points="283.5,-185.7 283.5,-208.7 397.5,-208.7 397.5,-185.7 283.5,-185.7"/>
<text text-anchor="start" x="288.239" y="-194.8" font-family="Helvetica,sans-Serif" font-weight="bold" font-size="11.00" fill="#000000">sahularch_c14</text>
<text text-anchor="start" x="363.0219" y="-193.8" font-family="Helvetica,sans-Serif" font-size="11.00" fill="#000000">[table]</text>
<polygon fill="none" stroke="#000000" points="283.5,-163.7 283.5,-185.7 397.5,-185.7 397.5,-163.7 283.5,-163.7"/>
<image xlink:href="../../images/foreignKeys.png" width="11px" height="12px" preserveAspectRatio="xMinYMin meet" x="288.5" y="-180.7"/>
<text text-anchor="start" x="308.5" y="-170.8" font-family="Helvetica,sans-Serif" font-size="11.00" fill="#000000">DBDOI</text>
<polygon fill="none" stroke="#000000" points="283.5,-141.7 283.5,-163.7 397.5,-163.7 397.5,-141.7 283.5,-141.7"/>
<image xlink:href="../../images/foreignKeys.png" width="11px" height="12px" preserveAspectRatio="xMinYMin meet" x="288.5" y="-158.7"/>
<text text-anchor="start" x="308.5" y="-148.8" font-family="Helvetica,sans-Serif" font-size="11.00" fill="#000000">SITEID</text>
<polygon fill="none" stroke="#000000" points="283.5,-119.7 283.5,-141.7 397.5,-141.7 397.5,-119.7 283.5,-119.7"/>
<image xlink:href="../../images/foreignKeys.png" width="11px" height="12px" preserveAspectRatio="xMinYMin meet" x="288.5" y="-136.7"/>
<text text-anchor="start" x="308.5" y="-126.8" font-family="Helvetica,sans-Serif" font-size="11.00" fill="#000000">METASITEID</text>
<polygon fill="none" stroke="#000000" points="283.5,-97.7 283.5,-119.7 397.5,-119.7 397.5,-97.7 283.5,-97.7"/>
<image xlink:href="../../images/foreignKeys.png" width="11px" height="12px" preserveAspectRatio="xMinYMin meet" x="288.5" y="-114.7"/>
<text text-anchor="start" x="308.5" y="-104.8" font-family="Helvetica,sans-Serif" font-size="11.00" fill="#000000">HUM_MODID</text>
<polygon fill="none" stroke="#000000" points="283.5,-75.7 283.5,-97.7 397.5,-97.7 397.5,-75.7 283.5,-75.7"/>
<image xlink:href="../../images/primaryKeys.png" width="11px" height="12px" preserveAspectRatio="xMinYMin meet" x="288.5" y="-92.7"/>
<text text-anchor="start" x="308.5" y="-82.8" font-family="Helvetica,sans-Serif" font-size="11.00" fill="#000000">id</text>
<polygon fill="none" stroke="#000000" points="283.5,-56.7 283.5,-75.7 397.5,-75.7 397.5,-56.7 283.5,-56.7"/>
<text text-anchor="start" x="286.5" y="-62.8" font-family="Helvetica,sans-Serif" font-size="11.00" fill="#000000">...</text>
<polygon fill="#ffffff" stroke="transparent" points="283.5,-37.7 283.5,-56.7 315.5,-56.7 315.5,-37.7 283.5,-37.7"/>
<polygon fill="none" stroke="#000000" points="283.5,-37.7 283.5,-56.7 315.5,-56.7 315.5,-37.7 283.5,-37.7"/>
<text text-anchor="start" x="286.5" y="-43.8" font-family="Helvetica,sans-Serif" font-size="11.00" fill="#000000">&lt; 4</text>
<polygon fill="#ffffff" stroke="transparent" points="315.5,-37.7 315.5,-56.7 379.5,-56.7 379.5,-37.7 315.5,-37.7"/>
<polygon fill="none" stroke="#000000" points="315.5,-37.7 315.5,-56.7 379.5,-56.7 379.5,-37.7 315.5,-37.7"/>
<text text-anchor="start" x="322.7089" y="-43.8" font-family="Helvetica,sans-Serif" font-size="11.00" fill="#000000">9,504 rows</text>
<polygon fill="#ffffff" stroke="transparent" points="379.5,-37.7 379.5,-56.7 397.5,-56.7 397.5,-37.7 379.5,-37.7"/>
<polygon fill="none" stroke="#000000" points="379.5,-37.7 379.5,-56.7 397.5,-56.7 397.5,-37.7 379.5,-37.7"/>
<text text-anchor="start" x="388.3862" y="-43.8" font-family="Helvetica,sans-Serif" font-size="11.00" fill="#000000"> &#160;</text>
</a>
</g>
</g>
<!-- sahularch_c14&#45;&gt;c14_hum_modID -->
<g id="edge2" class="edge">
<title>sahularch_c14:w&#45;&gt;c14_hum_modID:e</title>
<path fill="none" stroke="#000000" stroke-dasharray="5,2" d="M269.0578,-110.576C197.2333,-131.7854 314.5527,-325.7 219.5,-325.7"/>
<polygon fill="#000000" stroke="#000000" points="275.5666,-109.7306 283.9637,-112.27 279.5333,-109.2153 283.5,-108.7 283.5,-108.7 283.5,-108.7 279.5333,-109.2153 283.0363,-105.13 275.5666,-109.7306 275.5666,-109.7306"/>
<ellipse fill="none" stroke="#000000" cx="272.3933" cy="-110.1428" rx="3.2" ry="3.2"/>
</g>
</g>
</svg>
